<?xml version="1.0" encoding="utf-8"?>
<!-- Generator: Adobe Illustrator 22.1.0, SVG Export Plug-In . SVG Version: 6.00 Build 0)  -->
<svg version="1.1" id="Capa_1" xmlns="http://www.w3.org/2000/svg" xmlns:xlink="http://www.w3.org/1999/xlink" x="0px" y="0px"
	 viewBox="0 0 80 40" style="enable-background:new 0 0 80 40;" xml:space="preserve">
<style type="text/css">
	.st0{fill:#777777;}
	.st1{fill:#FC0453;}
	.st2{fill:#FC0453;stroke:#FC0453;stroke-miterlimit:10;}
	.st3{display:none;fill:none;stroke:#FC0453;stroke-miterlimit:10;}
</style>
<g>
	<path class="st0" d="M20,4.1C11.3,4.1,4.1,11.2,4.1,20S11.2,35.9,20,35.9S35.9,28.8,35.9,20S28.8,4.1,20,4.1z M20,34.7
		c-8.1,0-14.6-6.6-14.6-14.7S11.9,5.3,20,5.3S34.7,11.9,34.7,20S28.1,34.7,20,34.7z"/>
</g>
<g>
	<path class="st1" d="M60,4.1c-8.8,0-15.9,7.1-15.9,15.9S51.2,35.9,60,35.9S75.9,28.8,75.9,20C75.8,11.2,68.7,4.1,60,4.1z M60,34.7
		c-8.1,0-14.7-6.6-14.7-14.7S51.9,5.3,60,5.3S74.7,11.9,74.7,20C74.6,28.1,68,34.7,60,34.7z"/>
	<path class="st2" d="M67.4,13.5l-9.3,10.6l-5.7-4.6c-0.3-0.2-0.6-0.2-0.9,0.1c-0.2,0.3-0.2,0.6,0.1,0.9l6.1,4.9
		c0.1,0.1,0.2,0.1,0.4,0.1s0.3-0.1,0.5-0.2l9.8-11c0.2-0.3,0.2-0.6-0.1-0.9C68.1,13.2,67.7,13.2,67.4,13.5z"/>
</g>
<rect class="st3" width="40" height="40"/>
<rect x="40" class="st3" width="40" height="40"/>
</svg>
