<?xml version="1.0" encoding="utf-8"?>
<!-- Generator: Adobe Illustrator 22.1.0, SVG Export Plug-In . SVG Version: 6.00 Build 0)  -->
<svg version="1.1" id="Capa_1" xmlns="http://www.w3.org/2000/svg" xmlns:xlink="http://www.w3.org/1999/xlink" x="0px" y="0px"
	 viewBox="0 0 77.5 37.1" style="enable-background:new 0 0 77.5 37.1;" xml:space="preserve">
<style type="text/css">
	.st0{fill:#777777;}
	.st1{fill:#FC0453;}
</style>
<g>
	<path class="st0" d="M20.1,2C11.4,2,4.2,9.1,4.2,17.9c0,8.8,7.1,15.9,15.9,15.9c8.8,0,15.9-7.1,15.9-15.9C36,9.1,28.9,2,20.1,2z
		 M20.1,32.6C12,32.6,5.5,26,5.5,17.9S12,3.2,20.1,3.2c8.1,0,14.7,6.6,14.7,14.7S28.2,32.6,20.1,32.6z"/>
</g>
<g>
	<path class="st1" d="M60.6,2c-8.8,0-15.9,7.1-15.9,15.9c0,8.8,7.1,15.9,15.9,15.9c8.8,0,15.9-7.1,15.9-15.9C76.4,9.1,69.3,2,60.6,2
		z M60.6,32.6c-8.1,0-14.7-6.6-14.7-14.7S52.5,3.2,60.6,3.2c8.1,0,14.7,6.6,14.7,14.7C75.2,26,68.6,32.6,60.6,32.6z"/>
	<path class="st1" d="M68,11.4L58.7,22L53,17.4c-0.3-0.2-0.6-0.2-0.9,0.1c-0.2,0.3-0.2,0.6,0.1,0.9l6.1,4.9c0.1,0.1,0.2,0.1,0.4,0.1
		c0.2,0,0.3-0.1,0.5-0.2l9.8-11c0.2-0.3,0.2-0.6-0.1-0.9C68.7,11.1,68.3,11.1,68,11.4z"/>
</g>
</svg>
